<?xml version="1.0" encoding="UTF-8"?>
<svg width="130px" height="41px" viewBox="0 0 130 41" version="1.1" xmlns="http://www.w3.org/2000/svg" xmlns:xlink="http://www.w3.org/1999/xlink">
    <!-- Generator: Sketch 54.1 (76490) - https://sketchapp.com -->
    <title>编组</title>
    <desc>Created with Sketch.</desc>
    <g id="页面1" stroke="none" stroke-width="1" fill="none" fill-rule="evenodd">
        <g id="H5首页" transform="translate(-30.000000, -151.000000)">
            <g id="编组" transform="translate(30.000000, 151.000000)">
                <path d="M108.438172,22.1990975 C108.180109,30.6967458 107.83547,33.8412585 107.276194,34.6485254 C106.932109,35.20075 106.588023,35.3279958 106.114215,35.3279958 C105.597257,35.3279958 104.951683,35.3279958 104.177215,35.2428898 C105.726704,31.2065551 106.588023,26.7031017 107.017577,22.1990975 L108.438172,22.1990975 Z M129.897853,15.7605169 L126.172385,13.5317881 L125.311619,13.8289703 L119.198853,13.8289703 C119.500619,12.9792881 119.801555,12.1296059 120.060172,11.2375085 L129.897853,11.2375085 L129.897853,5.41670339 L121.480215,5.41670339 C121.81296,3.4587161 122.0713,1.28589831 122.0713,1.28589831 L116.099874,0.276470339 C115.755789,3.59036864 115.153087,7.15848305 114.292321,10.0903686 L114.292321,6.9037161 L109.815896,6.9037161 L109.815896,0.780771186 L103.789704,0.275368644 L103.789704,6.9037161 L99.1415128,6.9037161 L99.1415128,12.7245212 L101.895853,12.7245212 C101.723811,21.2643093 101.293151,30.5268093 97.0321936,36.6026568 C98.6245553,37.5374449 100.38896,39.1941186 101.379449,40.5963008 C102.412534,39.1092881 103.273577,37.452339 103.961747,35.7526992 C104.650194,37.197572 105.08113,39.1941186 105.167428,40.6814068 C109.859045,40.808928 111.028215,40.1344153 112.226151,38.4295424 C113.863598,36.0986314 114.163151,18.5453263 114.163151,18.5453263 L114.249172,16.6374661 L107.448236,16.6333347 C107.534534,15.3162585 107.57713,13.9991822 107.620832,12.7245212 L113.388406,12.7245212 C113.000619,13.5742034 112.656534,14.3387797 112.226151,15.0188008 C113.259236,15.5286102 114.722704,16.3782924 115.884683,17.1855593 L115.884683,19.1402415 L121.871045,19.1402415 L120.989257,20.4859619 L119.245598,20.4887161 L119.245598,24.4512373 L114.839428,24.4512373 L114.839428,29.9318941 L119.245598,29.9318941 L119.245598,34.5631441 C119.245598,35.0305381 119.073002,35.1156441 118.513726,35.1580593 C117.996768,35.1580593 116.306215,35.1580593 114.842747,35.0729534 C115.574343,36.6877627 116.263066,39.0247331 116.435109,40.6814068 C123.795874,40.6814068 125.056045,39.4921271 125.056045,34.6906653 L125.056045,29.9318941 L129.897853,29.9318941 L129.897853,24.4512373 L125.056045,24.4512373 L125.056045,23.4313432 L129.897853,15.7605169 Z" id="Fill-1" fill="#828282"></path>
                <path d="M99.5487447,16.0203517 C98.0858298,14.7454153 95.03,13.2584025 92.7480851,12.4087203 L89.3047447,16.9551398 C91.6292553,17.9747585 94.5561915,19.7165381 95.890766,20.9914746 L99.5487447,16.0203517 Z" id="Fill-3" fill="#828282"></path>
                <path d="M100.563574,4.56189831 C99.0569574,3.24509746 96.0011277,1.67297881 93.676617,0.780605932 L90.1901277,5.28433475 C92.5143617,6.34664407 95.5273191,8.17352966 96.8613404,9.49060593 L100.563574,4.56189831 Z" id="Fill-5" fill="#828282"></path>
                <path d="M99.5487447,26.2781504 L94.4693404,23.2190191 C92.9206809,28.4024936 90.8564468,33.7985953 89.3498298,37.2397394 L94.9271064,40.0978114 C94.9271064,40.0978114 95.1918085,39.4679174 95.4166809,38.8545487 C96.7081064,35.4979597 98.215,30.9518157 99.5487447,26.2781504" id="Fill-7" fill="#828282"></path>
                <path d="M64.0961404,10.8577818 C62.6655872,10.7847945 57.4318426,10.4474004 57.4318426,10.4474004 C56.4568426,13.8574216 53.6164809,16.5450064 45.6676723,17.2922309 C46.8304809,18.483714 48.3379277,20.7812987 48.8548851,22.2707903 C57.8450766,20.8900911 62.3613319,16.2921674 64.0961404,10.8577818" id="Fill-9" fill="#828282"></path>
                <path d="M86.2602553,15.8190445 L76.3199574,15.8190445 C74.9411277,15.8190445 74.683617,15.6915233 74.683617,14.5000403 L74.6780851,10.8402097 L68.4809574,10.5218199 L68.4809574,15.2924343 C68.4809574,19.9302945 69.773766,21.4619258 75.372617,21.4619258 L85.528383,21.4619258 L86.2602553,15.8190445 Z" id="Fill-11" fill="#828282"></path>
                <polygon id="Fill-13" fill="#828282" points="47.1894468 9.37019068 84.7381489 9.37019068 84.7381489 4.31754237 47.1894468 4.31754237"></polygon>
                <polygon id="Fill-15" fill="#828282" points="69.5157021 5.32807203 62.4118936 5.32807203 62.4118936 0.275423729 69.5157021 0.780826271"></polygon>
                <polygon id="Fill-16" fill="#828282" points="47.1894468 13.4123093 53.2784255 13.4123093 53.2784255 8.35966102 47.1894468 8.35966102"></polygon>
                <polygon id="Fill-17" fill="#828282" points="78.6488936 13.4123093 84.7381489 13.4123093 84.7381489 8.35966102 78.6488936 8.35966102"></polygon>
                <path d="M47.1895021,23.0365508 L47.1895021,28.7380975 L77.8473745,28.7380975 C77.3237787,33.8474831 75.5281191,34.3421441 74.2021191,34.3421441 C73.0365447,34.3421441 70.6628,34.3421441 68.073034,34.1289661 C69.3249064,35.9627373 70.1992255,38.8078644 70.3289489,40.6843263 C78.5933532,40.6843263 84.2815447,39.5851102 84.7382043,23.0365508 L47.1895021,23.0365508 Z" id="Fill-18" fill="#828282"></path>
                <path d="M60.3315894,18.6165784 C60.3315894,30.5914513 54.1579723,34.2628496 45.6670362,35.5383369 C46.9161426,36.7725106 48.6230149,39.1221504 49.1831213,40.6964725 C59.9086745,38.5743326 67.0799723,32.9829555 67.5831,18.9884004" id="Fill-19" fill="#828282"></path>
                <path d="M20.2965128,32.6895466 C13.5279383,32.6895466 8.04110851,27.2259661 8.04110851,20.4857966 C8.04110851,13.746178 13.5279383,8.28232203 20.2965128,8.28232203 C27.0650872,8.28232203 32.5521936,13.746178 32.5521936,20.4857966 C32.5521936,27.2259661 27.0650872,32.6895466 20.2965128,32.6895466 M20.2965128,0.275478814 C9.08719362,0.275478814 -8.29787234e-05,9.32397458 -8.29787234e-05,20.4857966 C-8.29787234e-05,31.6478941 9.08719362,40.6963898 20.2965128,40.6963898 C31.5058319,40.6963898 40.5931085,31.6478941 40.5931085,20.4857966 C40.5931085,9.32397458 31.5058319,0.275478814 20.2965128,0.275478814" id="Fill-20" fill="#007852"></path>
                <path d="M39.3400191,39.9814174 L20.7414447,29.3690657 C20.5171255,29.2409936 20.476466,28.9360996 20.6590191,28.7543199 L28.600083,20.8469047 C28.7826362,20.665125 29.0888277,20.7058877 29.2171681,20.9289809 L39.8752319,39.4487479 C40.0735511,39.7941292 39.6868702,40.179447 39.3400191,39.9814174" id="Fill-21" fill="#AC162C"></path>
            </g>
        </g>
    </g>
</svg>